<?xml version="1.0" encoding="UTF-8" standalone="no"?>
<!-- Created with Inkscape (http://www.inkscape.org/) -->

<svg
   xmlns:dc="http://purl.org/dc/elements/1.1/"
   xmlns:cc="http://creativecommons.org/ns#"
   xmlns:rdf="http://www.w3.org/1999/02/22-rdf-syntax-ns#"
   xmlns:svg="http://www.w3.org/2000/svg"
   xmlns="http://www.w3.org/2000/svg"
   version="1.1"
   width="744.09448"
   height="1052.3622"
   id="svg2"
   style="display:inline">
  <title
     id="title4332">Black Raven Dragoons Logotest</title>
  <defs
     id="defs4" />
  <metadata
     id="metadata7">
    <rdf:RDF>
      <cc:Work
         rdf:about="">
        <dc:format>image/svg+xml</dc:format>
        <dc:type
           rdf:resource="http://purl.org/dc/dcmitype/StillImage" />
        <dc:title>Black Raven Dragoons Logotest</dc:title>
        <dc:date>2010-10-30</dc:date>
        <dc:creator>
          <cc:Agent>
            <dc:title>Benjamin A. Shelton</dc:title>
          </cc:Agent>
        </dc:creator>
        <cc:license
           rdf:resource="http://creativecommons.org/licenses/by-nc-sa/3.0/" />
      </cc:Work>
      <cc:License
         rdf:about="http://creativecommons.org/licenses/by-nc-sa/3.0/">
        <cc:permits
           rdf:resource="http://creativecommons.org/ns#Reproduction" />
        <cc:permits
           rdf:resource="http://creativecommons.org/ns#Distribution" />
        <cc:requires
           rdf:resource="http://creativecommons.org/ns#Notice" />
        <cc:requires
           rdf:resource="http://creativecommons.org/ns#Attribution" />
        <cc:prohibits
           rdf:resource="http://creativecommons.org/ns#CommercialUse" />
        <cc:permits
           rdf:resource="http://creativecommons.org/ns#DerivativeWorks" />
        <cc:requires
           rdf:resource="http://creativecommons.org/ns#ShareAlike" />
      </cc:License>
    </rdf:RDF>
  </metadata>
  <g
     id="layer2">
    <path
       d="m 388.15625,238.96875 c -83.67193,0.60551 -207.3518,29.91437 -315.4375,104.8125 299.05738,-140.28055 383.91077,-54.10192 348.0625,25.90625 -31.84827,43.00817 -21.82038,-129.25124 -284.59375,16.71875 104.91304,-46.19765 250.58627,-103.31916 274.75,55.8125 4.32245,39.4964 107.30052,-51.95431 174.4375,-5.09375 4.78544,3.24643 18.57677,12.44035 40.40625,19.5625 3.04533,1.0737 5.56073,-0.54275 6.34375,-1.53125 0.13786,0.12529 0.5455,0.54297 -0.65625,2.65625 11.01283,-7.68603 -9.66322,-35.63436 -30.4375,-49.9375 C 552.98985,337.82256 485.5883,327.83823 477.8125,320 c 0,0 -22.98882,-9.63729 -5.875,-20.78125 38.11556,-36.05681 -5.18034,-60.81881 -83.78125,-60.25 z m 187.90625,155.5625 c 0,0 5.31439,3.66639 8.0625,8.625 -0.60619,1.47919 -2.08476,2.04969 -4.0625,0.90625 -3.78711,-3.24369 -4,-9.53125 -4,-9.53125 z"
       id="path3786"
       style="fill:#000000;fill-opacity:1;stroke:none" />
    <path
       d="m 350.95924,359.50982 c -30.01828,-3.19633 -91.15628,2.80149 -188.2821,51.82864 188.71641,-66.48997 188.89338,-31.38375 188.89338,-31.38375 4.29279,-5.29691 10.63064,-19.84517 -0.61128,-20.44489 z"
       id="path4316"
       style="fill:#000000;fill-opacity:1;stroke:none" />
    <path
       d="m 279.09094,295.66729 c -2.27442,-0.53354 -21.75747,-11.42916 -175.54871,64.37905 179.48089,-72.92903 174.73471,-49.34403 174.73471,-49.34403 6.15148,-10.40133 2.83304,-14.56138 0.814,-15.03502 z"
       id="path4322"
       style="fill:#000000;fill-opacity:1;stroke:none" />
    <path
       d="m 356.84311,403.57263 c -22.99985,-3.68274 -70.35176,-1.54583 -147.18169,32.28363 148.11215,-43.56286 146.82184,-16.50555 146.82184,-16.50555 3.52295,-3.90694 8.99762,-14.85913 0.35985,-15.77808 z"
       id="path3060"
       style="fill:#000000;fill-opacity:1;stroke:none" />
  </g>
</svg>
