<?xml version="1.0" encoding="UTF-8" standalone="no"?>
<!-- Created with Inkscape (http://www.inkscape.org/) -->

<svg
   xmlns:dc="http://purl.org/dc/elements/1.1/"
   xmlns:cc="http://creativecommons.org/ns#"
   xmlns:rdf="http://www.w3.org/1999/02/22-rdf-syntax-ns#"
   xmlns:svg="http://www.w3.org/2000/svg"
   xmlns="http://www.w3.org/2000/svg"
   xmlns:sodipodi="http://sodipodi.sourceforge.net/DTD/sodipodi-0.dtd"
   xmlns:inkscape="http://www.inkscape.org/namespaces/inkscape"
   width="744.09448"
   height="1052.3622"
   id="svg2"
   version="1.1"
   inkscape:version="0.48.1 "
   sodipodi:docname="goon-mail.svg"
   style="display:inline">
  <title
     id="title4332">Black Raven Dragoons Logotest</title>
  <defs
     id="defs4" />
  <sodipodi:namedview
     id="base"
     pagecolor="#ffffff"
     bordercolor="#666666"
     borderopacity="1.0"
     inkscape:pageopacity="0.0"
     inkscape:pageshadow="2"
     inkscape:zoom="1"
     inkscape:cx="445.30203"
     inkscape:cy="689.58235"
     inkscape:document-units="px"
     inkscape:current-layer="layer2"
     showgrid="false"
     inkscape:window-width="1771"
     inkscape:window-height="962"
     inkscape:window-x="99"
     inkscape:window-y="68"
     inkscape:window-maximized="0" />
  <metadata
     id="metadata7">
    <rdf:RDF>
      <cc:Work
         rdf:about="">
        <dc:format>image/svg+xml</dc:format>
        <dc:type
           rdf:resource="http://purl.org/dc/dcmitype/StillImage" />
        <dc:title>Black Raven Dragoons Logotest</dc:title>
        <dc:date>2010-10-30</dc:date>
        <dc:creator>
          <cc:Agent>
            <dc:title>Benjamin A. Shelton</dc:title>
          </cc:Agent>
        </dc:creator>
        <cc:license
           rdf:resource="http://creativecommons.org/licenses/by-nc-sa/3.0/" />
      </cc:Work>
      <cc:License
         rdf:about="http://creativecommons.org/licenses/by-nc-sa/3.0/">
        <cc:permits
           rdf:resource="http://creativecommons.org/ns#Reproduction" />
        <cc:permits
           rdf:resource="http://creativecommons.org/ns#Distribution" />
        <cc:requires
           rdf:resource="http://creativecommons.org/ns#Notice" />
        <cc:requires
           rdf:resource="http://creativecommons.org/ns#Attribution" />
        <cc:prohibits
           rdf:resource="http://creativecommons.org/ns#CommercialUse" />
        <cc:permits
           rdf:resource="http://creativecommons.org/ns#DerivativeWorks" />
        <cc:requires
           rdf:resource="http://creativecommons.org/ns#ShareAlike" />
      </cc:License>
    </rdf:RDF>
  </metadata>
  <g
     inkscape:groupmode="layer"
     id="layer2"
     inkscape:label="Layer"
     style="opacity:1">
    <path
       style="fill:#000000;fill-opacity:1;stroke:none"
       d="m 122.71875,332.78125 c 306.05738,-94.28055 388.54849,-18.09722 388.54849,-18.09722 0,0 14.90797,-1.23501 15.5422,9.09339 0.89151,14.51823 -0.0468,16.10113 -0.10354,38.57665 17.00653,-7.33656 51.46008,-18.81395 40.98302,35.05392 -9.58696,48.30235 -37.4023,66.67799 -74.73857,48.80965 38.82245,47.9964 107.28767,-51.9532 174.42465,-5.09264 4.78544,3.24643 18.57231,12.44035 40.40179,19.5625 3.04533,1.0737 5.56519,-0.53382 6.34821,-1.52232 0.13786,0.12529 0.53938,0.53019 -0.66237,2.64347 11.01283,-7.68603 -9.65714,-35.63051 -30.43142,-49.93365 C 634.98981,341.82256 567.5883,331.83823 559.8125,324 c 0,0 -22.98882,-9.63729 -5.875,-20.78125 78.69019,-74.43986 -341.098,-49.69448 -431.21875,29.5625 z"
       id="path3786"
       inkscape:connector-curvature="0"
       sodipodi:nodetypes="ccsccccccccccc"
       inkscape:export-filename="D:\misc\graphics\gimped\logos\dragoons\raven-candidate-5.png"
       inkscape:export-xdpi="200"
       inkscape:export-ydpi="200" />
    <path
       style="fill:#000000;fill-opacity:1;stroke:none"
       d="m 241.45924,325.00982 c -30.01828,-3.19633 -91.15628,2.80149 -188.282096,51.82864 188.716406,-66.48997 188.893376,-31.38375 188.893376,-31.38375 4.29279,-5.29691 10.63064,-19.84517 -0.61128,-20.44489 z"
       id="path4316"
       inkscape:connector-curvature="0"
       sodipodi:nodetypes="cccc"
       inkscape:export-filename="D:\misc\graphics\gimped\logos\dragoons\raven-candidate-5.png"
       inkscape:export-xdpi="200"
       inkscape:export-ydpi="200" />
    <path
       sodipodi:nodetypes="sccs"
       inkscape:connector-curvature="0"
       id="path4322"
       d="m 386.09012,293.87777 c -2.1039,-1.01551 -18.75032,-15.88832 -185.34926,24.65087 191.04713,-32.14076 181.28423,-10.15294 181.28423,-10.15294 8.26675,-8.81415 5.93269,-13.59644 4.06503,-14.49793 z"
       style="fill:#000000;fill-opacity:1;stroke:none"
       inkscape:export-xdpi="200"
       inkscape:export-ydpi="200"
       inkscape:export-filename="D:\misc\graphics\gimped\logos\dragoons\raven-candidate-5.png" />
    <path
       inkscape:connector-curvature="0"
       id="path3767"
       style="font-size:138.91255188px;font-style:normal;font-variant:normal;font-weight:normal;font-stretch:normal;line-height:125%;letter-spacing:-5.40215445px;word-spacing:0px;fill:#000000;fill-opacity:1;stroke:none;font-family:Aurora BdCn BT;-inkscape-font-specification:Aurora BdCn BT"
       d="m 150.96461,352.79228 28.08096,0 c 8.5463,10e-5 14.08725,2.02364 16.62286,6.07064 2.53545,4.04718 2.33127,10.5474 -0.61252,19.50066 l -14.38483,43.74932 c -2.95881,8.99858 -7.02161,15.5101 -12.18841,19.53458 -5.16692,4.02448 -12.04614,6.03672 -20.63769,6.03672 l -28.08096,0 c 9.37506,-30.00768 24.44454,-70.27134 29.60029,-85.69596 2.40576,-6.92462 -14.94985,-8.97298 -14.94985,-8.97298 z m 15.02663,18.04235 -19.33589,58.80722 3.52707,0 c 2.62266,2e-5 4.56864,-0.48608 5.83794,-1.45831 1.26922,-0.97219 2.55804,-3.44792 3.86647,-7.42721 l 0.78057,-2.37399 12.68988,-38.59436 c 1.30833,-3.97919 1.65127,-6.46623 1.02883,-7.46112 -0.62255,-0.99474 -2.24516,-1.49215 -4.8678,-1.49223 z"
       inkscape:export-filename="D:\misc\graphics\gimped\logos\dragoons\raven-candidate-5.png"
       inkscape:export-xdpi="200"
       inkscape:export-ydpi="200"
       sodipodi:nodetypes="cccssssccccccssscsccc" />
    <path
       style="font-size:138.91255188px;font-style:normal;font-variant:normal;font-weight:normal;font-stretch:normal;line-height:125%;letter-spacing:-5.40215445px;word-spacing:0px;fill:#000000;fill-opacity:1;stroke:none;font-family:Aurora BdCn BT;-inkscape-font-specification:Aurora BdCn BT"
       sodipodi:nodetypes="ccccccsccssccc"
       inkscape:connector-curvature="0"
       id="path3769"
       d="m 205.57809,365.00139 18.44933,0 -1.47194,4.47668 c 2.17733,-1.80868 4.47735,-3.16525 6.90005,-4.06971 2.42259,-0.90429 4.94526,-1.35648 7.56803,-1.35657 6.10448,9e-5 9.85093,1.84276 11.23934,5.52802 1.38827,3.68542 1.29298,10.51441 -2.55632,19.63632 l -4.98009,11.80162 c 4.54498,-28.10726 -11.08671,-25.19398 -14.11809,-24.49803 -2.55702,0.26524 -4.58077,2.88397 -5.54087,3.87872 -0.96021,0.99488 -2.05732,3.36887 -3.29132,7.12198 l -19.78193,60.16378 -19.60241,0 z"
       inkscape:export-filename="D:\misc\graphics\gimped\logos\dragoons\raven-candidate-5.png"
       inkscape:export-xdpi="200"
       inkscape:export-ydpi="200" />
    <path
       style="font-size:138.91255188px;font-style:normal;font-variant:normal;font-weight:normal;font-stretch:normal;line-height:125%;letter-spacing:-5.40215445px;word-spacing:0px;fill:#000000;fill-opacity:1;stroke:none;font-family:Aurora BdCn BT;-inkscape-font-specification:Aurora BdCn BT"
       sodipodi:nodetypes="cscccscccsssssscccccscccsscscccsc"
       inkscape:connector-curvature="0"
       id="path3771"
       d="m 245.23002,397.59682 4.43581,-13.12868 c 2.36166,-6.98981 5.87963,-12.20904 10.72533,-15.60053 4.84562,-3.39134 11.08945,-5.08705 18.7315,-5.08713 8.18456,8e-5 13.52512,1.87667 16.0217,5.62976 2.49644,3.75324 2.37684,9.78996 -0.35881,18.11018 l -19.78193,60.16378 -18.58498,0 1.47193,-4.47667 c -2.31246,1.94442 -4.66853,3.40273 -7.06823,4.37493 -2.39976,0.97221 -4.86575,1.45831 -7.39799,1.45831 -5.33585,0 -8.88935,-1.6731 -10.6605,-5.0193 -1.77118,-3.34619 -1.63087,-8.13939 0.42093,-14.37962 l 4.01437,-12.20911 c 2.11125,-6.42105 5.2165,-11.36121 9.31576,-14.8205 4.09922,-3.4592 13.45457,-7.87935 28.06609,-13.26046 l 0.91438,-2.78096 c 1.0407,-3.16526 1.40438,-5.23402 1.09104,-6.2063 -0.31346,-0.97214 -1.30671,-1.45824 -2.97976,-1.45831 -1.67315,7e-5 -2.99736,0.48617 -3.97265,1.45831 -0.97539,0.97228 -1.98344,3.04104 -3.02415,6.2063 l -0.33519,1.93463 z m 24.42222,6.74504 c -3.83505,1.89924 -6.77651,3.90017 -8.8244,6.00281 -2.04797,2.10272 -3.82278,5.43761 -5.32441,10.00469 l -0.40144,1.22091 -1.18201,3.59491 c -1.24895,3.79841 -1.7167,6.1837 -1.40327,7.15589 0.31337,0.97222 1.32923,1.45833 3.04758,1.45831 1.67306,2e-5 2.98598,-0.48609 3.93875,-1.45831 0.95268,-0.97219 2.0535,-3.35748 3.30246,-7.15589 z"
       inkscape:export-filename="D:\misc\graphics\gimped\logos\dragoons\raven-candidate-5.png"
       inkscape:export-xdpi="200"
       inkscape:export-ydpi="200" />
    <path
       inkscape:connector-curvature="0"
       id="path3773"
       style="font-size:138.91255188px;font-style:normal;font-variant:normal;font-weight:normal;font-stretch:normal;line-height:125%;letter-spacing:-5.40215445px;word-spacing:0px;fill:#000000;fill-opacity:1;stroke:none;font-family:Aurora BdCn BT;-inkscape-font-specification:Aurora BdCn BT"
       d="m 318.95002,416.00834 9.36687,-28.48792 c 1.24887,-3.79833 1.70531,-6.18362 1.36936,-7.1559 -0.33606,-0.97214 -1.34062,-1.45824 -3.01367,-1.45831 -1.67315,7e-5 -3.00108,0.49748 -3.9838,1.49223 -0.98282,0.99488 -2.09123,3.36887 -3.32523,7.12198 l -9.36687,28.48792 c -1.26382,3.84364 -1.73142,6.26285 -1.40281,7.25764 0.32855,0.99484 1.32938,1.49225 3.00251,1.49223 1.67307,2e-5 3.00472,-0.50869 3.99496,-1.52614 0.99016,-1.0174 2.10973,-3.42531 3.35868,-7.22373 z m 35.89877,-51.00695 -22.34667,67.96405 c -1.32332,4.0245 -2.50035,7.05416 -3.53111,9.08901 -1.03086,2.03485 -2.24347,3.86622 -3.63783,5.4941 -2.74426,3.1201 -6.39237,5.5167 -10.94432,7.18981 -4.55202,1.67309 -9.78985,2.50964 -15.71351,2.50965 -4.47668,-1e-5 -8.63898,-0.47481 -12.48687,-1.4244 -3.84792,-0.9496 -7.21545,-2.32878 -10.10258,-4.13753 l 10.01111,-11.05603 c 2.583,1.22092 4.94225,2.1253 7.07776,2.71314 2.13546,0.58785 4.24324,0.88177 6.32333,0.88177 3.48184,0 6.28218,-0.7122 8.40105,-2.1366 2.1188,-1.42439 3.66885,-3.62881 4.65018,-6.61327 l 0.82518,-2.50965 c -2.40291,1.94443 -4.86072,3.40274 -7.37347,4.37493 -2.5128,0.97222 -5.05793,1.45832 -7.63539,1.45831 -5.4715,1e-5 -8.84429,-1.707 -10.11834,-5.12104 -1.27408,-3.41401 -0.58042,-9.16811 2.08098,-17.26233 l 8.94313,-27.19918 c 3.07765,-9.36025 6.52969,-15.9396 10.35612,-19.73806 3.82635,-3.79831 8.74661,-5.69751 14.76077,-5.69759 2.62264,8e-5 4.79902,0.46358 6.52913,1.39048 1.73,0.92707 3.11191,2.36277 4.14574,4.30711 l 1.47194,-4.47668 z"
       inkscape:export-filename="D:\misc\graphics\gimped\logos\dragoons\raven-candidate-5.png"
       inkscape:export-xdpi="200"
       inkscape:export-ydpi="200" />
    <path
       style="font-size:138.91255188px;font-style:normal;font-variant:normal;font-weight:normal;font-stretch:normal;line-height:125%;letter-spacing:-5.40215445px;word-spacing:0px;fill:#000000;fill-opacity:1;stroke:none;font-family:Aurora BdCn BT;-inkscape-font-specification:Aurora BdCn BT"
       d="m 384.84375,363.78125 c -8.77252,8e-5 -15.64739,1.98093 -20.65625,5.9375 -5.00895,3.95674 -9.13229,10.82653 -12.34375,20.59375 l -10.5625,32.0625 c -3.24125,9.85775 -3.64927,16.74482 -1.25,20.65625 2.39924,3.91144 7.99479,5.87499 16.8125,5.875 8.81765,-10e-6 15.71602,-1.96356 20.6875,-5.875 4.97137,-3.91143 9.10245,-10.7985 12.34375,-20.65625 l 10.53125,-32.0625 c 0.91807,-2.79224 1.6306,-5.34001 2.09375,-7.65625 -8.93378,-1.07846 -15.97792,-2.09536 -20,-2.90625 0.15924,0.17813 0.2938,0.39012 0.375,0.625 0.33595,0.97228 -0.0949,3.35792 -1.34375,7.15625 l -12.375,37.625 c -1.24895,3.79841 -2.36846,6.18406 -3.34375,7.15625 -0.97537,0.97222 -2.29569,1.46877 -3.96875,1.46875 -1.67314,2e-5 -2.68663,-0.49653 -3,-1.46875 -0.31344,-0.97219 0.15731,-3.35784 1.40625,-7.15625 l 12.375,-37.625 c 1.23401,-3.75311 2.35229,-6.13012 3.3125,-7.125 0.96011,-0.99475 2.26435,-1.49993 3.9375,-1.5 0.39399,2e-5 0.74265,0.0398 1.0625,0.0937 0.0197,0.003 0.0431,-0.004 0.0625,0 6.47688,-0.1914 13.95909,-0.33802 22.09375,-0.4375 0.33313,-3.80051 -0.15483,-6.76516 -1.4375,-8.875 -2.3919,-3.93396 -7.99488,-5.90617 -16.8125,-5.90625 z"
       id="path3775"
       inkscape:export-filename="D:\misc\graphics\gimped\logos\dragoons\raven-candidate-5.png"
       inkscape:export-xdpi="200"
       inkscape:export-ydpi="200"
       inkscape:connector-curvature="0" />
    <path
       style="font-size:138.91255188px;font-style:normal;font-variant:normal;font-weight:normal;font-stretch:normal;line-height:125%;letter-spacing:-5.40215445px;word-spacing:0px;fill:#000000;fill-opacity:1;stroke:none;font-family:Aurora BdCn BT;-inkscape-font-specification:Aurora BdCn BT"
       d="m 437.78125,363.78125 c -8.77253,8e-5 -15.67864,1.98093 -20.6875,5.9375 -2.65386,2.09638 -5.03822,5.02255 -7.1875,8.75 14.46975,-0.13235 30.40316,-0.14259 46.125,-0.0937 0.3019,-3.71177 -0.17566,-6.61192 -1.4375,-8.6875 -2.3919,-3.93396 -7.99488,-5.90617 -16.8125,-5.90625 z M 407.5,383.21875 c -0.96947,2.16772 -1.87373,4.52374 -2.71875,7.09375 l -10.5625,32.0625 c -3.24124,9.85775 -3.64927,16.74482 -1.25,20.65625 2.39924,3.91144 7.99479,5.87499 16.8125,5.875 8.81765,-10e-6 15.71602,-1.96356 20.6875,-5.875 4.97137,-3.91143 9.07121,-10.7985 12.3125,-20.65625 l 10.5625,-32.0625 c 0.29386,-0.89374 0.534,-1.74877 0.78125,-2.59375 -6.57137,-0.5316 -13.00747,-1.11101 -19.21875,-1.6875 -0.14741,0.48999 -0.28823,0.95096 -0.46875,1.5 l -12.375,37.625 c -1.24895,3.79841 -2.33721,6.18406 -3.3125,7.15625 -0.97538,0.97222 -2.32694,1.46877 -4,1.46875 -1.67314,2e-5 -2.65538,-0.49653 -2.96875,-1.46875 -0.31344,-0.97219 0.15731,-3.35784 1.40625,-7.15625 l 12.375,-37.625 c 0.2782,-0.84612 0.54821,-1.60657 0.8125,-2.3125 -6.82154,-0.67205 -13.11353,-1.33913 -18.875,-2 z"
       id="path3778"
       inkscape:export-filename="D:\misc\graphics\gimped\logos\dragoons\raven-candidate-5.png"
       inkscape:export-xdpi="200"
       inkscape:export-ydpi="200"
       inkscape:connector-curvature="0" />
    <path
       style="font-size:138.91255188px;font-style:normal;font-variant:normal;font-weight:normal;font-stretch:normal;line-height:125%;letter-spacing:-5.40215445px;word-spacing:0px;fill:#000000;fill-opacity:1;stroke:none;font-family:Aurora BdCn BT;-inkscape-font-specification:Aurora BdCn BT"
       d="m 498.78125,363.78125 c -2.57754,8e-5 -5.08516,0.48798 -7.5,1.4375 -2.41497,0.94968 -4.76499,2.35088 -7.0625,4.25 L 485.6875,365 l -18.4375,0 -4.40625,13.40625 c 17.52356,0.076 33.87397,0.21063 47.21875,0.375 0.69526,-4.06149 0.67607,-7.20974 -0.125,-9.375 -1.38873,-3.75309 -5.09698,-5.62492 -11.15625,-5.625 z M 459.625,388.15625 440.0625,447.6875 465.66666,426.82785 478.78125,389.5 c -6.37115,-0.41185 -12.78193,-0.84984 -19.15625,-1.34375 z m 27.875,1.90625 -11.19058,36.76535 11.84683,20.85965 18.625,-56.71875 C 500.56628,390.7272 494.14763,390.4474 487.5,390.0625 z"
       id="path3780"
       inkscape:export-filename="D:\misc\graphics\gimped\logos\dragoons\raven-candidate-5.png"
       inkscape:export-xdpi="200"
       inkscape:export-ydpi="200"
       inkscape:connector-curvature="0"
       sodipodi:nodetypes="ccccccccccccccccccc" />
    <path
       style="font-size:138.91255188px;font-style:normal;font-variant:normal;font-weight:normal;font-stretch:normal;line-height:125%;letter-spacing:-5.40215445px;word-spacing:0px;fill:#000000;fill-opacity:1;stroke:none;font-family:Aurora BdCn BT;-inkscape-font-specification:Aurora BdCn BT"
       d="m 543.90625,363.78125 c -7.95859,8e-5 -14.50123,1.7629 -19.625,5.3125 -3.47892,2.41018 -6.30021,5.68263 -8.5,9.75 10.60195,0.14291 17.68411,0.30129 21.12104,0.18193 3.43694,0.0385 4.71354,0.0808 5.76657,0.33383 2.21777,0.35096 12.2057,2.11025 13.92489,20.14049 l 4.875,-13.34375 c 2.74293,-7.56231 1.72341,-13.72817 -0.9375,-17.1875 -2.66106,-3.45916 -8.21435,-5.18742 -16.625,-5.1875 z M 512.3125,391.1875 c 0.34777,5.64866 3.58065,11.64038 9.75,17.96875 1.42338,1.44704 2.54005,2.59234 3.3125,3.40625 2.30171,2.35141 3.59655,4.41002 3.90625,6.21875 0.30962,1.80878 -0.0366,4.28617 -1.0625,7.40625 -0.89212,2.71316 -1.92986,4.66808 -3.0625,5.84375 -1.13272,1.17571 -2.53173,1.75002 -4.25,1.75 -1.71836,2e-5 -2.74913,-0.49653 -3.0625,-1.46875 -0.31344,-0.97219 0.44024,-3.27622 1.40625,-7.15625 l 1.65625,-6.59375 -12.78125,-15.15625 -8.03125,20.40625 c -3.04796,9.26989 -3.31646,15.76945 -0.8125,19.5 2.50394,3.73056 8.36907,5.59374 17.59375,5.59375 8.27503,-10e-6 14.96369,-1.93764 20.09375,-5.78125 5.12994,-3.8436 9.04396,-9.86389 11.75,-18.09375 1.85844,-5.65234 2.37011,-10.53265 1.5,-14.625 -0.87022,-4.09227 -3.28242,-8.0626 -7.21875,-11.90625 -0.95396,-0.94955 -2.34016,-2.21582 -4.15625,-3.84375 -1.26981,-1.11939 -2.31016,-2.20375 -3.1875,-3.21875 -6.79344,0.1324 -14.71956,0.0245 -23.34375,-0.25 z"
       id="path3782"
       inkscape:export-filename="D:\misc\graphics\gimped\logos\dragoons\raven-candidate-5.png"
       inkscape:export-xdpi="200"
       inkscape:export-ydpi="200"
       inkscape:connector-curvature="0"
       sodipodi:nodetypes="cccccccccccccccccccccssscccccc" />
    <g
       style="font-size:62.18352127px;font-style:normal;font-variant:normal;font-weight:normal;font-stretch:normal;line-height:125%;letter-spacing:0px;word-spacing:0px;fill:#000000;fill-opacity:1;stroke:none;font-family:Aurora BdCn BT;-inkscape-font-specification:Aurora BdCn BT"
       id="text4328"
       inkscape:export-filename="D:\misc\graphics\gimped\logos\dragoons\raven-candidate-5.png"
       inkscape:export-xdpi="200"
       inkscape:export-ydpi="200"
       transform="translate(82,4)">
      <path
         d="m 188.22955,326.03348 c 1.3562,3e-5 2.28733,-0.2783 2.7934,-0.83498 0.50603,-0.55663 0.75905,-1.52319 0.75907,-2.89967 -2e-5,-1.82175 -0.2328,-3.05652 -0.69835,-3.70429 -0.46558,-0.64772 -1.30562,-0.97159 -2.52013,-0.97162 l -1.76106,0 0,8.41056 z m -1.42707,18.21783 1.24489,0 c 1.47765,1e-5 2.46951,-0.37447 2.97558,-1.12343 0.50603,-0.74895 0.75905,-2.30758 0.75907,-4.67591 -2e-5,-1.90274 -0.24798,-3.25895 -0.74389,-4.06865 -0.49595,-0.80966 -1.32081,-1.2145 -2.47459,-1.21452 l -1.76106,0 z m -9.2,8.07657 0,-42.4779 13.05611,0 c 3.86621,4e-5 6.59382,0.8502 8.18284,2.55049 1.58897,1.70037 2.38347,4.58486 2.3835,8.65347 -3e-5,2.34811 -0.22775,4.1294 -0.68317,5.3439 -0.45547,1.21454 -1.19936,2.04447 -2.23168,2.48977 1.0728,0.52631 1.82681,1.47263 2.26204,2.83894 0.43518,1.36636 0.65278,3.73974 0.65281,7.12014 -3e-5,5.14148 -0.81983,8.67371 -2.45941,10.5967 -1.63962,1.923 -4.58484,2.88449 -8.83564,2.88449 z"
         id="path3042"
         inkscape:connector-curvature="0" />
      <path
         d="m 206.5081,309.84998 8.77492,0 0,42.4779 -8.77492,0 z"
         id="path3044"
         inkscape:connector-curvature="0" />
      <path
         d="m 220.96091,331.33356 0,-7.30404 c 0,-3.13748 0.83498,-5.46531 2.50495,-6.9835 1.66996,-1.51812 4.21539,-2.27719 7.63631,-2.27723 3.66379,4e-5 6.33067,0.84008 8.00066,2.52013 1.66994,1.68013 2.50493,4.38243 2.50495,8.10694 l 0,26.93202 -8.31948,0 0,-2.00396 c -0.74896,0.87041 -1.58901,1.52321 -2.52013,1.95842 -0.93114,0.4352 -1.96349,0.6528 -3.09703,0.6528 -2.38857,0 -4.22553,-0.74895 -5.51089,-2.24686 -1.28537,-1.49791 -1.92806,-3.64356 -1.92806,-6.43697 l 0,-5.46535 c 0,-2.87435 0.66293,-5.08579 1.98878,-6.63432 1.32585,-1.5485 4.86314,-3.52715 10.61189,-5.93598 l 0,-1.24488 c -2e-5,-1.41692 -0.14171,-2.34299 -0.42508,-2.77822 -0.28341,-0.43518 -0.79958,-0.65278 -1.54852,-0.65281 -0.74897,3e-5 -1.2702,0.21763 -1.5637,0.65281 -0.29352,0.43523 -0.44027,1.3613 -0.44026,2.77822 l 0,1.48778 z m 11.87195,1.59233 c -1.4372,0.85019 -2.45942,1.7459 -3.06667,2.68713 -0.60727,0.94127 -0.9109,2.43412 -0.91089,4.47855 l 0,0.54654 0,1.60924 c -1e-5,1.70034 0.14168,2.7681 0.42508,3.2033 0.28338,0.43521 0.80967,0.65281 1.57888,0.65281 0.74894,0 1.26511,-0.2176 1.54852,-0.65281 0.28337,-0.4352 0.42506,-1.50296 0.42508,-3.2033 z"
         id="path3046"
         inkscape:connector-curvature="0"
         sodipodi:nodetypes="cscccsccccssssscccccscccsscscsccc" />
      <path
         d="m 268.02363,330.31467 -8.86601,0 0,-4.91881 c -1e-5,-1.7003 -0.14677,-2.76807 -0.44026,-3.2033 -0.29353,-0.43518 -0.81476,-0.65278 -1.5637,-0.65281 -0.74897,3e-5 -1.26514,0.22269 -1.54852,0.66799 -0.2834,0.44535 -0.42509,1.50806 -0.42508,3.18812 l 0,16.85149 c -1e-5,1.70034 0.14168,2.7681 0.42508,3.2033 0.28338,0.43521 0.79955,0.65281 1.54852,0.65281 0.74894,0 1.27017,-0.2176 1.5637,-0.65281 0.29349,-0.4352 0.44025,-1.50296 0.44026,-3.2033 l 0,-4.91881 8.86601,0 0,3.67392 c -2e-5,4.41277 -0.82489,7.49462 -2.47459,9.24555 -1.64974,1.75094 -4.4482,2.62641 -8.39538,2.62641 -3.94721,0 -6.74566,-0.87547 -8.39538,-2.62641 -1.64973,-1.75093 -2.47459,-4.83278 -2.47459,-9.24555 l 0,-14.36172 c 0,-4.37225 0.82992,-7.44397 2.48977,-9.21518 1.65984,-1.77114 4.45324,-2.65673 8.3802,-2.65677 3.94718,4e-5 6.74564,0.88057 8.39538,2.64159 1.6497,1.76109 2.47457,4.83787 2.47459,9.23036 z"
         id="path3048"
         inkscape:connector-curvature="0" />
      <path
         d="m 272.69954,309.84998 8.77492,0 0,19.64489 c 1.25499,-1.09305 2.23167,-2.8035 2.93003,-5.13136 0.69834,-2.3278 1.04751,-5.09083 1.04753,-8.28911 l 0,-0.75907 8.77492,0 0,2.12541 c -2e-5,1.94327 -0.25811,3.89662 -0.77426,5.86007 -0.51619,1.9635 -1.26009,3.80552 -2.23168,5.52607 0.99184,1.78132 1.74079,4.03325 2.24686,6.75578 0.50603,2.72257 0.75906,5.85502 0.75908,9.39736 l 0,5.3439 0,2.00396 -8.73074,-7.26241 c -0.0442,-0.63328 -0.13528,-1.83637 -0.31745,-4.30591 -0.18219,-2.46951 -0.46558,-4.39251 -0.85016,-5.76898 -0.46558,0.4251 -0.93115,0.81982 -1.3967,1.18416 -0.46558,0.36437 -0.95139,0.70849 -1.45743,1.03234 l 0,7.96134 -8.77492,7.15946 z"
         id="path3050"
         inkscape:connector-curvature="0"
         sodipodi:nodetypes="cccssccccccscccscscccc" />
      <path
         d="m 322.22168,325.97276 1.54851,0 c 1.43717,2e-5 2.39867,-0.29855 2.88449,-0.89571 0.4858,-0.59712 0.7287,-1.79646 0.72872,-3.59803 -2e-5,-1.49787 -0.25305,-2.56564 -0.75908,-3.2033 -0.50607,-0.63759 -1.34611,-0.9564 -2.52013,-0.95643 l -1.88251,0 z m -9.07855,-16.12278 12.5703,0 c 4.0079,4e-5 6.83166,0.94635 8.47129,2.83894 1.63958,1.89267 2.45938,5.21742 2.45941,9.97426 -3e-5,2.2469 -0.25812,4.10916 -0.77426,5.5868 -0.5162,1.4777 -1.27021,2.47967 -2.26205,3.00595 l 3.49175,21.07195 -10.89828,-8.08753 -1.36839,-11.07155 -2.30759,0 0,11.11574 -9.38218,8.04334 z"
         id="path3052"
         inkscape:connector-curvature="0"
         sodipodi:nodetypes="ccsccccccsccccccccccc" />
      <path
         d="m 341.32003,330.95856 0,-6.92904 c 0,-3.13748 0.83498,-5.46531 2.50495,-6.9835 1.66996,-1.51812 4.2154,-2.27719 7.63631,-2.27723 3.66379,4e-5 6.33067,0.84008 8.00066,2.52013 1.66995,1.68013 2.50493,4.38243 2.50495,8.10694 l 0,26.93202 -8.31947,0 0,-2.00396 c -0.74897,0.87041 -1.58901,1.52321 -2.52013,1.95842 -0.93115,0.4352 -1.96349,0.6528 -3.09704,0.6528 -2.38856,0 -4.22552,-0.74895 -5.51089,-2.24686 -1.28537,-1.49791 -1.92805,-3.64356 -1.92805,-6.43697 l 0,-5.46535 c 0,-2.87435 0.66292,-5.08579 1.98878,-6.63432 1.32585,-1.5485 4.86314,-3.52715 10.61188,-5.93598 l 0,-1.24488 c -10e-6,-1.41692 -0.14171,-2.34299 -0.42508,-2.77822 -0.2834,-0.43518 -0.79957,-0.65278 -1.54852,-0.65281 -0.74896,3e-5 -1.27019,0.21763 -1.56369,0.65281 -0.29352,0.43523 -0.44028,1.3613 -0.44027,2.77822 l 0,1.48778 z m 11.87195,1.96733 c -1.4372,0.85019 -2.45942,1.7459 -3.06667,2.68713 -0.60727,0.94127 -0.9109,2.43412 -0.91089,4.47855 l 0,0.54654 0,1.60924 c -1e-5,1.70034 0.14169,2.7681 0.42509,3.2033 0.28337,0.43521 0.80967,0.65281 1.57887,0.65281 0.74895,0 1.26512,-0.2176 1.54852,-0.65281 0.28337,-0.4352 0.42507,-1.50296 0.42508,-3.2033 z"
         id="path3054"
         inkscape:connector-curvature="0"
         sodipodi:nodetypes="cscccsccccssssscscccscccsscscscsc" />
      <path
         d="m 375.53918,329.06979 c 0,3.23874 0.16698,6.21938 0.50099,8.94191 0.33398,2.72257 0.82485,5.13643 1.47261,7.24159 0.66797,-2.02419 1.16896,-4.38745 1.50297,-7.08977 0.33397,-2.7023 0.50097,-5.73354 0.50099,-9.09373 l 0,-1.79345 8.74455,-11.96101 0,14.99934 c -2e-5,4.67593 -0.49595,8.87615 -1.48779,12.60067 -0.99188,3.72454 -2.43918,6.86205 -4.34191,9.41254 l -9.83763,0 c -1.90276,-2.55049 -3.35006,-5.688 -4.34191,-9.41254 -0.99187,-3.72452 -1.4878,-7.92474 -1.48779,-12.60067 l 0,-14.99934 8.77492,11.9427 z"
         id="path3056"
         inkscape:connector-curvature="0"
         sodipodi:nodetypes="scccsccssccssccs" />
      <path
         d="m 401.49959,325.63876 0,2.82377 4.25083,0 0,-2.82377 c -2e-5,-1.82175 -0.15183,-2.96037 -0.45545,-3.41584 -0.30364,-0.45542 -0.8603,-0.68314 -1.66997,-0.68317 -0.80969,3e-5 -1.36634,0.22775 -1.66996,0.68317 -0.30365,0.45547 -0.45546,1.59409 -0.45545,3.41584 z m 12.99538,9.59473 -12.99538,0 0,7.01386 c -1e-5,1.72058 0.1518,2.79341 0.45545,3.21848 0.30362,0.42509 0.86027,0.63763 1.66996,0.63763 0.78943,0 1.37227,-0.34766 1.74884,-1.02093 0.22156,-0.57412 9.12113,-7.03524 9.12113,-7.03524 l 0,2.95517 c 0,4.41277 -0.82488,7.49462 -2.47458,9.24555 -1.64975,1.75094 -4.44821,2.62641 -8.39539,2.62641 -3.9472,0 -6.74566,-0.87547 -8.39538,-2.62641 -1.64973,-1.75093 -2.47459,-4.83278 -2.47459,-9.24555 l 0,-14.36172 c 0,-4.37225 0.82992,-7.44397 2.48977,-9.21518 1.65984,-1.77114 4.45324,-2.65673 8.3802,-2.65677 3.94718,4e-5 6.74564,0.88057 8.39539,2.64159 1.6497,1.76109 2.47456,4.83787 2.47458,9.23036 z"
         id="path3058"
         inkscape:connector-curvature="0"
         sodipodi:nodetypes="scccccssccscsccsssssscccsc" />
      <path
         d="m 419.41378,315.31533 8.25875,0 0,2.00396 c 0.74894,-0.85013 1.59405,-1.48776 2.53531,-1.91287 0.94124,-0.42505 1.98877,-0.63759 3.14258,-0.63763 2.71241,4e-5 4.65565,0.84008 5.8297,2.52013 1.17402,1.68013 1.76104,4.63546 1.76106,8.86601 l 0,26.17295 -8.77492,-11.4021 0,-15.52992 c 0,-1.7003 -0.14171,-2.76807 -0.42508,-3.2033 -0.28341,-0.43518 -0.8097,-0.65278 -1.57888,-0.65281 -0.74897,3e-5 -1.26514,0.22269 -1.54852,0.66799 -0.2834,0.44535 -0.42509,1.50806 -0.42508,3.18812 l 0,15.52992 -8.77492,11.4021 z"
         id="path3060"
         inkscape:connector-curvature="0"
         sodipodi:nodetypes="ccccccsccscccsccc" />
    </g>
    <path
       style="fill:#ffffff;fill-opacity:1;stroke:none"
       d="m 658.07435,398.5366 c 0,0 5.30407,3.67434 8.05218,8.63295 -0.60619,1.47919 -2.09361,2.03948 -4.07135,0.89604 -3.78711,-3.24369 -3.98083,-9.52899 -3.98083,-9.52899 z"
       id="path3777"
       inkscape:connector-curvature="0"
       sodipodi:nodetypes="cccc"
       inkscape:export-filename="D:\misc\graphics\gimped\logos\dragoons\raven-candidate-5.png"
       inkscape:export-xdpi="200"
       inkscape:export-ydpi="200" />
  </g>
</svg>
